<?xml version="1.0" standalone="no"?>
<!DOCTYPE svg PUBLIC "-//W3C//DTD SVG 20010904//EN"
 "http://www.w3.org/TR/2001/REC-SVG-20010904/DTD/svg10.dtd">
<svg version="1.0" xmlns="http://www.w3.org/2000/svg"
 width="162.000000pt" height="162.000000pt" viewBox="0 0 162.000000 162.000000"
 preserveAspectRatio="xMidYMid meet">

<g transform="translate(0.000000,162.000000) scale(0.100000,-0.100000)"
fill="#000000" stroke="none">
<path d="M720 1491 c0 -40 13 -62 24 -39 5 10 7 10 12 1 12 -26 21 -12 20 30
-1 38 -3 42 -28 45 -26 3 -28 1 -28 -37z m40 4 c0 -8 -4 -15 -10 -15 -5 0 -10
7 -10 15 0 8 5 15 10 15 6 0 10 -7 10 -15z"/>
<path d="M801 1499 c-17 -50 -15 -62 9 -47 17 11 22 10 31 -2 8 -11 9 -4 4 25
-11 66 -26 74 -44 24z m29 -9 c0 -5 -5 -10 -11 -10 -5 0 -7 5 -4 10 3 6 8 10
11 10 2 0 4 -4 4 -10z"/>
<path d="M867 1487 c-4 -27 -2 -44 6 -49 17 -11 37 -10 37 2 0 6 -7 10 -16 10
-13 0 -15 7 -11 35 3 19 2 37 -2 40 -5 2 -11 -14 -14 -38z"/>
<path d="M656 1512 c-2 -4 -1 -23 3 -42 5 -26 13 -36 29 -38 12 -2 22 1 22 7
0 6 -7 11 -15 11 -8 0 -15 5 -15 10 0 6 5 10 10 10 6 0 10 5 10 11 0 5 -4 8
-9 4 -5 -3 -12 -1 -16 5 -3 5 1 10 9 10 9 0 16 5 16 10 0 12 -37 14 -44 2z"/>
<path d="M620 1492 c0 -19 -2 -21 -20 -10 -10 7 -21 10 -24 7 -8 -8 16 -79 26
-79 5 0 6 10 2 22 -7 22 -6 22 21 4 l28 -18 -7 38 c-9 45 -26 69 -26 36z"/>
<path d="M968 1497 c-25 -20 -28 -45 -8 -69 15 -18 21 -21 31 -10 11 10 10 12
-4 12 -10 0 -20 7 -23 15 -9 22 13 44 36 38 25 -7 26 3 1 16 -13 7 -23 7 -33
-2z"/>
<path d="M521 1471 c-21 -14 7 -83 33 -79 11 2 21 8 23 15 3 7 -3 9 -16 6 -26
-7 -27 5 -3 24 16 13 15 14 -5 8 -27 -8 -30 3 -5 21 14 11 14 13 2 14 -8 0
-21 -4 -29 -9z"/>
<path d="M1018 1456 c-21 -47 16 -83 52 -51 23 20 26 45 8 63 -20 20 -48 14
-60 -12z m50 -18 c-4 -29 -38 -38 -38 -10 0 22 8 32 27 32 9 0 13 -8 11 -22z"/>
<path d="M451 1432 c-15 -27 9 -67 39 -67 27 0 40 29 21 48 -8 8 -11 5 -11
-11 0 -26 -25 -30 -34 -5 -5 11 1 23 16 35 l23 18 -22 0 c-12 0 -27 -8 -32
-18z"/>
<path d="M1095 1420 c-19 -36 -20 -62 -1 -38 15 20 26 14 26 -14 0 -25 16 -14
36 24 18 35 11 51 -11 22 -14 -18 -14 -18 -15 9 0 35 -16 35 -35 -3z"/>
<path d="M1178 1397 c7 -8 6 -18 -4 -31 -8 -11 -14 -27 -14 -35 0 -9 9 -2 21
16 12 20 26 30 35 26 20 -7 18 7 -3 23 -24 18 -49 19 -35 1z"/>
<path d="M367 1374 c-5 -5 -1 -20 19 -74 5 -11 8 -9 15 9 6 15 14 21 24 17 24
-9 17 11 -11 33 -28 22 -37 25 -47 15z"/>
<path d="M1224 1358 c-4 -7 -15 -24 -23 -38 -15 -22 -15 -24 1 -18 12 5 18 1
20 -13 3 -18 5 -18 31 7 26 23 27 28 14 47 -17 26 -33 32 -43 15z m31 -38 c-5
-8 -11 -8 -17 -2 -6 6 -7 16 -3 22 5 8 11 8 17 2 6 -6 7 -16 3 -22z"/>
<path d="M328 1328 c19 -19 14 -29 -13 -22 -33 8 -33 -15 0 -46 27 -26 46 -21
24 6 -13 16 -11 17 14 10 15 -3 27 -2 27 2 0 15 -40 62 -53 62 -8 0 -7 -4 1
-12z"/>
<path d="M1273 1283 c-32 -16 -45 -36 -21 -30 6 1 17 -9 24 -22 l12 -24 16 31
c17 33 21 62 9 61 -5 0 -23 -8 -40 -16z m27 -13 c0 -5 -5 -10 -11 -10 -5 0 -7
5 -4 10 3 6 8 10 11 10 2 0 4 -4 4 -10z"/>
<path d="M680 1272 c-154 -40 -277 -157 -331 -314 -27 -79 -30 -208 -6 -288
68 -223 301 -376 520 -340 96 15 188 48 203 72 5 8 2 9 -12 3 -10 -4 -48 -15
-83 -23 -181 -42 -382 63 -468 244 -156 327 146 691 497 600 30 -8 57 -13 58
-11 8 7 -77 44 -135 59 -77 20 -160 19 -243 -2z"/>
<path d="M250 1248 c0 -15 37 -78 46 -78 3 0 2 9 -1 21 -5 15 -2 22 14 26 30
8 26 19 -10 32 -41 14 -49 14 -49 -1z m40 -18 c0 -5 -4 -10 -10 -10 -5 0 -10
5 -10 10 0 6 5 10 10 10 6 0 10 -4 10 -10z"/>
<path d="M1311 1221 c-15 -27 -14 -46 2 -60 18 -14 30 -2 16 15 -14 17 -5 44
15 44 7 0 22 -12 31 -27 18 -26 17 -27 -11 -49 -33 -27 -26 -44 8 -20 28 20
34 20 42 1 3 -10 -5 -20 -25 -30 -16 -9 -27 -20 -24 -25 3 -5 21 0 41 12 27
16 32 23 23 34 -6 8 -9 14 -5 14 4 0 0 14 -9 30 -9 17 -20 30 -25 30 -5 0 -10
10 -12 23 -4 30 -52 37 -67 8z"/>
<path d="M206 1194 c-9 -24 -7 -28 7 -15 11 8 18 6 31 -8 10 -11 15 -25 11
-30 -3 -6 -1 -11 5 -11 25 0 23 34 -4 57 -32 27 -42 29 -50 7z"/>
<path d="M835 1184 c-61 -16 -115 -37 -125 -49 -10 -12 -3 -12 35 2 68 23 185
13 251 -20 63 -32 129 -103 162 -175 21 -46 26 -72 26 -137 0 -69 -5 -89 -32
-146 -58 -121 -169 -193 -297 -194 -38 0 -85 3 -103 7 -48 11 -31 -7 26 -27
83 -29 170 -31 246 -5 132 44 227 143 261 275 18 72 19 115 1 180 -20 75 -53
132 -107 187 -70 70 -143 101 -244 104 -44 2 -89 1 -100 -2z"/>
<path d="M185 1150 c-3 -6 1 -13 9 -16 25 -9 19 -24 -9 -24 -36 0 -31 -24 10
-43 19 -9 35 -12 35 -7 0 6 -7 13 -15 16 -20 8 -9 24 16 24 27 0 24 15 -10 40
-18 12 -32 16 -36 10z"/>
<path d="M1408 1064 c-33 -17 -38 -38 -7 -29 20 7 20 6 4 -24 -17 -34 -13 -36
34 -20 34 12 43 35 10 26 -16 -4 -19 -2 -14 11 23 55 18 61 -27 36z"/>
<path d="M134 1039 c-3 -6 10 -28 30 -48 36 -35 37 -35 31 -10 -4 17 -1 31 9
41 8 9 12 18 9 22 -11 10 -71 7 -79 -5z m46 -19 c0 -5 -4 -10 -10 -10 -5 0
-10 5 -10 10 0 6 5 10 10 10 6 0 10 -4 10 -10z"/>
<path d="M1426 964 c-17 -16 -20 -33 -10 -58 7 -17 44 -22 44 -6 0 6 -7 10
-15 10 -17 0 -21 35 -5 45 15 9 38 -12 43 -38 3 -20 4 -20 11 -4 10 20 -17 67
-39 67 -7 0 -21 -7 -29 -16z"/>
<path d="M110 944 c-13 -34 -13 -41 6 -48 25 -9 64 -7 64 4 0 6 -5 10 -12 10
-6 0 -3 9 7 20 16 18 16 20 2 20 -10 0 -17 5 -17 10 0 22 -41 9 -50 -16z m40
-9 c0 -8 -7 -15 -15 -15 -16 0 -20 12 -8 23 11 12 23 8 23 -8z"/>
<path d="M590 805 c0 -59 3 -75 15 -75 8 0 19 9 26 21 l11 21 22 -21 c12 -12
28 -21 34 -21 14 0 16 26 3 35 -6 3 -3 18 7 34 15 27 15 30 -1 55 -15 22 -25
26 -67 26 l-50 0 0 -75z m80 30 c15 -18 5 -35 -21 -35 -14 0 -19 7 -19 25 0
28 21 33 40 10z"/>
<path d="M762 863 c-11 -10 -23 -31 -26 -46 -5 -22 -1 -34 23 -57 16 -17 40
-30 53 -30 35 0 68 27 68 56 0 21 -5 24 -35 24 -35 0 -50 -22 -22 -33 6 -3 3
-6 -9 -6 -22 -1 -44 16 -44 35 0 23 30 44 55 38 32 -8 50 3 34 22 -16 20 -73
18 -97 -3z"/>
<path d="M915 855 c-28 -27 -30 -42 -14 -79 17 -36 61 -52 99 -36 24 10 28 15
19 26 -7 8 -21 11 -35 8 -44 -11 -70 29 -39 60 12 11 22 13 40 6 33 -12 56 13
26 29 -33 18 -70 13 -96 -14z"/>
<path d="M1432 738 c-7 -7 -12 -18 -12 -26 0 -12 3 -12 15 -2 18 15 19 14 33
-25 l10 -30 1 36 c1 31 -13 59 -29 59 -3 0 -11 -5 -18 -12z"/>
<path d="M190 724 c0 -8 5 -12 10 -9 6 4 8 11 5 16 -9 14 -15 11 -15 -7z"/>
<path d="M141 669 c1 -34 7 -76 14 -93 6 -17 15 -39 19 -50 5 -15 9 -16 21 -6
20 17 19 25 -10 56 -14 15 -25 32 -25 39 0 6 11 21 25 33 14 12 25 29 25 37 0
21 -20 19 -21 -2 0 -12 -6 -6 -16 15 -9 17 -20 32 -25 32 -4 0 -7 -28 -7 -61z"/>
<path d="M1395 630 c-18 -7 -18 -9 -3 -15 9 -3 27 -5 40 -3 22 3 22 4 3 14
-11 7 -29 8 -40 4z"/>
<path d="M1385 560 c-3 -6 1 -13 9 -16 23 -9 20 -16 -20 -60 -36 -40 -70 -94
-58 -94 4 0 13 8 21 18 13 16 13 15 4 -4 -17 -36 -40 -49 -61 -36 -12 7 -21 8
-25 2 -3 -5 8 -16 24 -24 29 -15 30 -15 55 15 14 17 26 36 26 43 0 7 13 33 30
58 16 25 33 59 36 77 6 27 4 31 -14 31 -12 0 -24 -5 -27 -10z"/>
<path d="M1361 544 c0 -11 3 -14 6 -6 3 7 2 16 -1 19 -3 4 -6 -2 -5 -13z"/>
<path d="M207 486 c-21 -16 -18 -23 34 -101 38 -56 40 -57 73 -42 29 13 30 16
17 36 -8 12 -13 11 -30 -10 -20 -24 -27 -18 -22 19 3 18 -29 53 -40 46 -18
-10 -23 29 -6 41 10 7 17 15 17 19 0 11 -24 6 -43 -8z"/>
<path d="M1376 404 c-4 -10 -1 -14 6 -12 15 5 23 28 10 28 -5 0 -13 -7 -16
-16z"/>
<path d="M340 311 c-5 -11 -10 -22 -10 -25 0 -11 26 5 38 24 10 17 10 20 -3
20 -8 0 -19 -9 -25 -19z"/>
<path d="M1200 319 c0 -6 6 -9 14 -6 8 3 20 0 26 -8 9 -11 7 -16 -10 -25 -17
-9 -25 -8 -39 4 -23 21 -36 8 -14 -16 23 -25 45 -23 77 10 21 23 24 31 14 39
-18 13 -68 15 -68 2z"/>
<path d="M474 255 c11 -8 25 -15 30 -15 6 0 2 7 -8 15 -11 8 -25 15 -30 15 -6
0 -2 -7 8 -15z"/>
<path d="M400 245 c0 -30 102 -77 122 -57 16 16 0 36 -18 21 -10 -8 -21 -7
-46 9 -18 10 -32 24 -30 31 1 6 -5 11 -13 11 -8 0 -15 -7 -15 -15z"/>
<path d="M1070 241 c0 -5 7 -14 15 -21 12 -10 13 -16 5 -24 -8 -8 -17 -4 -31
13 -22 27 -39 20 -21 -9 14 -23 1 -34 -28 -25 -11 4 -33 -1 -51 -12 -24 -13
-33 -15 -36 -5 -3 6 -11 12 -19 12 -9 0 -12 5 -9 10 3 6 -1 10 -9 10 -9 0 -13
-6 -10 -14 3 -8 -3 -19 -15 -25 -28 -15 -51 -14 -51 3 0 8 -4 18 -10 21 -6 4
-10 -7 -10 -24 0 -30 2 -31 43 -31 48 0 188 25 214 39 10 5 31 14 46 20 20 8
27 16 23 27 -3 9 -6 22 -6 30 0 8 -9 14 -20 14 -11 0 -20 -4 -20 -9z"/>
<path d="M550 210 c0 -6 12 -16 26 -22 l26 -12 -24 -9 c-22 -9 -22 -9 -3 -17
31 -13 55 -11 55 3 0 8 10 19 23 24 20 10 21 11 3 18 -11 5 -21 3 -26 -6 -7
-11 -14 -9 -33 9 -25 23 -47 29 -47 12z"/>
<path d="M845 180 c-3 -5 -1 -10 4 -10 6 0 11 5 11 10 0 6 -2 10 -4 10 -3 0
-8 -4 -11 -10z"/>
<path d="M712 152 c-7 -5 -10 -16 -7 -25 5 -11 0 -17 -17 -20 -16 -3 -11 -5
13 -6 40 -1 65 19 55 44 -6 16 -24 19 -44 7z"/>
</g>
</svg>
